<svg xmlns="http://www.w3.org/2000/svg" fill="none" viewBox="0 0 214 24" height="24" width="214">
<g clip-path="url(#clip0_2097_108)">
<path fill="black" d="M103.73 20.3348L102.508 20.7158C101.436 21.0766 100.337 21.3524 99.222 21.5408C98.346 21.6648 98.048 21.2898 98.342 20.4678C98.5334 19.9475 98.7517 19.4374 98.996 18.9398C99.609 17.6558 100.296 16.4008 100.857 15.0958C101.457 13.6958 100.804 12.6958 99.301 12.5338C98.3217 12.4608 97.3398 12.6358 96.446 13.0428C97.329 11.2048 98.12 9.53578 98.933 7.87578C99.3448 7.05721 99.6204 6.17701 99.749 5.26978C99.7904 5.10132 99.7733 4.92383 99.7006 4.76633C99.628 4.60883 99.504 4.48066 99.349 4.40278C98.963 4.22578 98.707 4.47378 98.514 4.78978C98.294 5.15478 98.057 5.50778 97.854 5.88278C96.43 8.52411 95.0187 11.1721 93.62 13.8268C92.8863 15.2748 91.9473 16.6092 90.832 17.7888C90.2399 18.4337 89.7065 19.1301 89.238 19.8698C88.8968 20.3658 88.7388 20.965 88.791 21.5648C88.813 21.8468 88.805 22.2038 89.151 22.3208C89.322 22.3825 89.5058 22.4001 89.6855 22.3722C89.8651 22.3442 90.0348 22.2715 90.179 22.1608C90.3911 21.9802 90.5498 21.745 90.638 21.4808C91.868 18.5198 94.195 16.6448 96.917 15.1808C97.417 14.9128 98.145 14.5178 98.565 15.0228C98.985 15.5278 98.565 16.2038 98.232 16.7308C97.732 17.5258 97.194 18.2928 96.691 19.0848C95.709 20.6298 96.712 23.0948 98.434 23.1848C99.3952 23.2486 100.359 23.1192 101.27 22.8042C102.18 22.4892 103.018 21.995 103.734 21.3508C103.92 21.2048 104.057 21.0041 104.123 20.7768C104.198 20.4638 104.176 20.1938 103.723 20.3368"></path>
<path fill="black" d="M80.6002 20.072C80.5102 21.746 81.3622 23.048 82.9172 23.116C83.9415 23.1832 84.9675 23.0142 85.9161 22.622C86.8647 22.2299 87.7105 21.6249 88.3882 20.854C88.5712 20.6415 88.6679 20.3682 88.6592 20.088C88.6592 19.811 88.6222 19.723 88.2972 19.811C87.5378 20.0215 86.8058 20.3206 86.1162 20.702C85.4521 21.0934 84.7157 21.3465 83.9512 21.446C83.3192 21.506 83.0772 21.312 83.0392 20.679C83.0321 20.3173 83.0525 19.9556 83.1002 19.597C83.4742 15.558 85.4092 12.684 89.3172 11.29C90.2572 10.954 91.1972 10.595 92.1512 10.302C92.6872 10.138 92.5842 9.902 92.3372 9.602C92.1739 9.42996 91.9635 9.30979 91.7323 9.25645C91.5012 9.2031 91.2594 9.21894 91.0372 9.302C89.9142 9.494 88.7952 9.696 87.6152 9.902C87.7382 9.602 87.8212 9.383 87.9152 9.168C88.9292 6.805 89.9312 4.44 90.9592 2.082C91.1124 1.75864 91.1997 1.40806 91.2162 1.05064C91.2327 0.693217 91.178 0.336086 91.0552 0C90.0607 0.800204 89.2206 1.77518 88.5762 2.877C87.3392 5.046 86.5032 7.401 85.4362 9.649C85.3201 9.93285 85.1463 10.1895 84.9258 10.4026C84.7053 10.6157 84.4429 10.7807 84.1552 10.887C83.382 11.1811 82.6365 11.5432 81.9272 11.969C81.383 12.2764 80.9626 12.7636 80.7382 13.347C80.6022 13.697 80.5962 13.908 81.0892 13.847C81.7642 13.765 82.4452 13.735 83.2732 13.672C82.5322 15.159 81.8502 16.546 81.1482 17.924C80.815 18.593 80.6276 19.3252 80.5982 20.072"></path>
<path fill="black" d="M2.51031 22.9714C4.16322 23.3328 5.88815 23.1608 7.43717 22.4802C8.9862 21.7996 10.2795 20.6453 11.1313 19.1834C11.736 18.2175 11.991 17.0733 11.8537 15.9421C11.7165 14.8108 11.1954 13.7608 10.3773 12.9674C10.3579 12.9403 10.3399 12.9123 10.3233 12.8834C11.0249 12.3528 11.8063 11.9369 12.6383 11.6514C12.871 11.5698 13.0767 11.4256 13.2328 11.2347C13.3889 11.0439 13.4894 10.8137 13.5233 10.5694C13.5853 10.1244 13.4633 9.92042 12.9903 10.0284C12.4103 10.1614 11.8153 10.2424 11.2493 10.4184C9.69274 10.7959 8.25755 11.5625 7.07832 12.6464C6.36332 13.3794 6.52431 14.0954 7.47131 14.4974C8.01831 14.7304 8.58331 14.9264 9.13031 15.1614C9.33746 15.2226 9.51772 15.3522 9.64161 15.5292C9.7655 15.7061 9.82568 15.9198 9.81231 16.1354C9.81292 16.8412 9.65458 17.538 9.34902 18.1743C9.04347 18.8105 8.59856 19.3697 8.04731 19.8104C6.9562 20.6492 5.62978 21.1251 4.25431 21.1714C2.54031 21.2394 2.04432 20.8204 1.77032 19.1424C1.74132 18.9734 1.71631 18.8044 1.69731 18.6354C1.68231 18.5044 1.67132 18.3994 1.51332 18.3424C1.41734 18.3042 1.31625 18.2803 1.21331 18.2714C0.930203 18.2459 0.648531 18.3338 0.430247 18.5159C0.211964 18.698 0.0749429 18.9593 0.0493117 19.2424C-0.0948556 20.06 0.0798296 20.9018 0.537425 21.5945C0.995021 22.2872 1.70073 22.7782 2.50932 22.9664"></path>
<path fill="black" d="M65.4614 21.2384C64.5954 20.6554 64.5374 20.4104 64.6994 19.3634C64.9942 17.773 65.554 16.2433 66.3554 14.8384H66.3604C67.8544 12.0124 69.6324 9.34736 71.1404 6.52636C71.5468 5.75269 71.6971 4.86992 71.5694 4.00536C71.5514 3.84536 71.5184 3.69336 71.3824 3.62536C71.2034 3.53536 71.0604 3.65436 70.9334 3.77936C69.7714 4.81998 68.7977 6.05343 68.0554 7.42536C66.6094 10.4134 65.1204 13.3774 63.6214 16.3404C63.151 17.2714 62.8233 18.2679 62.6494 19.2964C62.6434 19.4274 62.5911 19.552 62.5017 19.648C62.4123 19.744 62.2917 19.8051 62.1614 19.8204C60.7764 20.1724 59.3984 20.5494 58.0124 20.8964C57.2497 21.1136 56.4563 21.2028 55.6644 21.1604C54.8904 21.0924 54.4644 20.7404 54.3964 20.0504C54.3479 19.6495 54.3709 19.2432 54.4644 18.8504C55.0807 16.4533 56.4906 14.3356 58.4644 12.8424C58.785 12.5727 59.1662 12.385 59.5754 12.2954C59.5754 12.8234 59.5854 13.3104 59.5754 13.7954C59.5664 14.0884 59.6694 14.1574 59.9574 14.1014C60.2673 14.0536 60.5476 13.8901 60.7417 13.6438C60.9358 13.3976 61.0293 13.0869 61.0034 12.7744C61.0394 12.1024 61.2744 11.3384 60.6434 10.8584C60.3345 10.6836 59.9819 10.601 59.6275 10.6203C59.273 10.6396 58.9316 10.76 58.6434 10.9674C56.2358 12.0789 54.3159 14.0301 53.2434 16.4554C52.7687 17.548 52.4688 18.7085 52.3544 19.8944C52.3004 20.3944 52.1164 20.5774 51.5994 20.5664C50.4894 20.5434 49.3784 20.5904 48.2674 20.5994C47.4534 20.5884 46.6493 20.4186 45.9004 20.0994C45.4952 19.9539 45.1421 19.6915 44.8859 19.3456C44.6296 18.9996 44.4815 18.5854 44.4604 18.1554C44.4061 17.8894 44.4463 17.6128 44.5741 17.3733C44.7019 17.1338 44.9093 16.9464 45.1604 16.8434C46.7499 15.9693 48.1449 14.7808 49.2604 13.3504C49.7616 12.7669 50.1642 12.1055 50.4524 11.3924C50.5636 11.1833 50.6066 10.9447 50.5754 10.71C50.5442 10.4752 50.4403 10.2561 50.2784 10.0834C50.1389 9.93315 49.9537 9.83321 49.7515 9.79903C49.5494 9.76486 49.3416 9.79837 49.1604 9.89436C48.5404 10.1144 47.9294 10.3604 47.3084 10.5764C46.9024 10.7184 46.3394 11.0764 46.0864 10.7884C45.8664 10.5424 46.2014 9.96336 46.3794 9.55336C47.2074 7.64036 48.0274 5.72536 48.8624 3.81536C49.0636 3.32136 49.2001 2.80339 49.2684 2.27436C49.3364 1.84636 49.1954 1.72236 48.7764 1.89636C47.9911 2.25613 47.3747 2.90476 47.0554 3.70736C45.9874 5.98236 44.9014 8.23936 43.8924 10.5384C42.8136 13.1341 41.4378 15.5962 39.7924 17.8754C39.2574 18.5884 38.8204 19.3754 38.3364 20.1274L38.1104 19.9004L38.1054 19.8854H38.0934C37.8197 19.8327 37.5378 19.8405 37.2674 19.9084C35.8524 20.2284 34.4414 20.5574 33.0244 20.8694C32.3021 21.0647 31.5576 21.1655 30.8094 21.1694C30.4943 21.2001 30.1799 21.1052 29.9345 20.9051C29.6891 20.7051 29.5327 20.4162 29.4994 20.1014C29.4903 20.0173 29.4903 19.9324 29.4994 19.8484C29.4747 19.4016 29.5244 18.9538 29.6464 18.5234C30.3232 16.2336 31.7204 14.2231 33.6304 12.7904C33.9259 12.5389 34.2858 12.3751 34.6694 12.3174C34.6694 12.8014 34.6974 13.2504 34.6624 13.6954C34.6254 14.1684 34.8374 14.1744 35.1924 14.0624C35.4158 14.0234 35.6201 13.912 35.7739 13.7454C35.9277 13.5787 36.0224 13.3661 36.0434 13.1404C36.1054 12.3544 36.4304 11.5174 35.7434 10.8404C35.5769 10.7036 35.3644 10.6356 35.1494 10.6504C34.5717 10.6441 34.0028 10.7922 33.5014 11.0794C29.8774 13.0894 27.6734 16.0354 27.4844 20.2884C27.4734 20.5294 27.4534 20.6834 27.1664 20.7224C26.3204 20.8354 25.4844 21.0224 24.6294 21.0704C24.3619 21.1075 24.0903 21.0397 23.8716 20.8813C23.6528 20.7229 23.5037 20.4861 23.4554 20.2204C23.3432 19.8406 23.3087 19.442 23.3539 19.0486C23.3991 18.6552 23.5231 18.2749 23.7184 17.9304C24.1964 17.0304 24.7004 16.1374 25.1324 15.2154C25.3242 14.9334 25.3962 14.5868 25.3327 14.2517C25.2691 13.9167 25.0752 13.6205 24.7934 13.4284C24.7237 13.3815 24.6497 13.3414 24.5724 13.3084C23.9344 12.9068 23.1958 12.6938 22.4419 12.6938C21.688 12.6938 20.9495 12.9068 20.3114 13.3084C18.8142 14.0553 17.5217 15.156 16.5459 16.5152C15.5701 17.8744 14.9404 19.4509 14.7114 21.1084C14.6746 21.3842 14.7012 21.6648 14.7892 21.9287C14.8772 22.1927 15.0243 22.4331 15.2194 22.6316C15.4144 22.8301 15.6521 22.9815 15.9145 23.0741C16.1769 23.1668 16.457 23.1983 16.7334 23.1664C18.1688 23.0034 19.4863 22.294 20.4124 21.1854C20.6864 20.8724 20.9674 20.5664 21.2844 20.2124C21.3654 20.5334 21.4134 20.7614 21.4844 20.9854C21.6113 21.5328 21.9313 22.0161 22.3857 22.3467C22.8401 22.6774 23.3985 22.8331 23.9584 22.7854C25.1166 22.7765 26.2508 22.4541 27.2404 21.8524C27.3006 21.7963 27.3713 21.7527 27.4483 21.724C27.5254 21.6953 27.6074 21.682 27.6895 21.685C27.7717 21.688 27.8525 21.7071 27.9273 21.7413C28.0021 21.7755 28.0694 21.8241 28.1254 21.8844C28.151 21.9123 28.1741 21.9424 28.1944 21.9744C28.7122 22.5181 29.3679 22.9111 30.0916 23.1113C30.8153 23.3116 31.5797 23.3116 32.3034 23.1114C34.0547 22.6536 35.7693 22.0649 37.4324 21.3504C37.6874 21.2349 37.8947 21.035 38.0194 20.7844V20.7794H38.1104C38.1104 20.9704 38.1104 21.1614 38.1244 21.3514C38.1105 21.5024 38.1319 21.6546 38.1869 21.7959C38.242 21.9373 38.3292 22.0638 38.4416 22.1656C38.5541 22.2674 38.6887 22.3416 38.8348 22.3823C38.9809 22.4231 39.1345 22.4293 39.2834 22.4004C39.5837 22.3939 39.8773 22.3102 40.1358 22.1573C40.3944 22.0044 40.6091 21.7874 40.7594 21.5274C41.2404 20.7654 41.6064 19.9424 42.0444 19.0814C42.2764 19.4974 42.4674 19.8484 42.6664 20.1974C43.2296 21.2085 44.0839 22.0268 45.1182 22.5461C46.1525 23.0654 47.3191 23.2617 48.4664 23.1094C49.7712 22.8985 51.0239 22.441 52.1574 21.7614C52.5084 21.5504 52.7104 21.5234 52.9764 21.8764C53.3565 22.3717 53.874 22.7442 54.4644 22.9474C55.4555 23.2231 56.4999 23.2465 57.5024 23.0154C59.0704 22.7017 60.593 22.1928 62.0344 21.5004C62.4794 21.3174 62.6884 21.3154 62.9594 21.7714C63.2562 22.269 63.6984 22.6637 64.2263 22.9024C64.7543 23.1411 65.3428 23.2123 65.9124 23.1064C66.6074 22.9174 66.7244 22.5924 66.3234 21.9914C66.0876 21.6867 65.7932 21.4323 65.4574 21.2434M47.6494 12.2434C47.7374 12.2364 47.8044 12.2124 47.8614 12.3044C47.9524 12.4514 47.8454 12.5454 47.7804 12.6424C47.2317 13.385 46.4699 13.943 45.5964 14.2424C45.3889 14.3077 45.1779 14.3615 44.9644 14.4034C45.2093 13.8551 45.581 13.3728 46.0489 12.9964C46.5168 12.62 47.0674 12.3602 47.6554 12.2384M22.3644 16.2854C21.6789 17.8574 20.5427 19.191 19.0994 20.1174C18.6539 20.4101 18.188 20.6708 17.7054 20.8974C16.9314 21.2644 16.7304 21.1174 16.7514 20.2374C16.8726 19.0999 17.3248 18.0229 18.0519 17.1399C18.7791 16.2568 19.7493 15.6065 20.8424 15.2694C21.0224 15.2104 21.2094 15.1774 21.3944 15.1224C21.7404 15.0224 22.2064 14.8294 22.4214 15.0714C22.7084 15.3924 22.5334 15.8944 22.3654 16.2824"></path>
<path fill="black" d="M213.443 10.024V10.019C211.437 10.32 209.532 11.0947 207.886 12.279C207.715 12.4066 207.563 12.5573 207.434 12.727C207.292 12.8546 207.188 13.019 207.135 13.2019C207.081 13.3849 207.078 13.5791 207.128 13.7632C207.178 13.9472 207.278 14.1139 207.417 14.2447C207.556 14.3754 207.728 14.4652 207.915 14.504C208.465 14.734 209.029 14.93 209.578 15.164C209.993 15.339 210.333 15.619 210.278 16.118C210.254 17.0138 209.997 17.888 209.534 18.655C209.033 19.3775 208.375 19.9768 207.609 20.4076C206.843 20.8384 205.989 21.0895 205.112 21.142C203.023 21.362 202.488 20.96 202.168 18.881C202.14 18.7 202.168 18.493 201.948 18.386C201.829 18.3292 201.7 18.2963 201.569 18.2894C201.437 18.2824 201.306 18.3014 201.182 18.3454C201.058 18.3893 200.944 18.4573 200.846 18.5454C200.748 18.6336 200.669 18.7401 200.613 18.859C200.57 18.9469 200.541 19.0405 200.527 19.137C200.484 19.4119 200.476 19.6911 200.504 19.968C200.547 20.357 200.39 20.474 200.018 20.529C198.75 20.715 197.487 20.929 196.226 21.156C195.194 21.3621 194.127 21.3008 193.126 20.978C192.613 20.809 192.526 20.563 192.86 20.145C192.996 19.9806 193.147 19.829 193.311 19.692C194.311 18.823 195.302 17.946 196.311 17.092C196.717 16.7266 197.028 16.2679 197.218 15.7553C197.408 15.2428 197.469 14.6918 197.399 14.15C197.413 13.8336 197.301 13.5245 197.088 13.29C196.876 13.0554 196.579 12.9145 196.263 12.898C196.22 12.8958 196.177 12.8958 196.134 12.898C195.771 12.8716 195.407 12.9157 195.062 13.028C193.512 13.4433 192.151 14.3752 191.204 15.6694C190.256 16.9636 189.779 18.5426 189.852 20.145C189.867 20.305 189.92 20.505 189.706 20.585C188.54 21.1714 187.262 21.4999 185.959 21.548C185.384 21.516 185.166 21.181 185.335 20.637C185.611 19.8571 185.943 19.0984 186.33 18.367C186.887 17.193 187.537 16.067 187.995 14.845C188.113 14.6319 188.176 14.393 188.18 14.1494C188.183 13.9058 188.127 13.6652 188.015 13.4487C187.903 13.2322 187.74 13.0466 187.54 12.9083C187.339 12.77 187.108 12.6834 186.866 12.656C186.245 12.4819 185.589 12.4777 184.966 12.644C184.521 12.76 184.079 12.889 183.528 13.044C184.408 11.21 185.228 9.46596 186.063 7.72696C186.438 6.98796 186.691 6.19245 186.81 5.37196C186.859 4.97896 186.946 4.57196 186.461 4.39896C185.976 4.22596 185.732 4.55496 185.507 4.92696C183.776 7.81196 182.307 10.841 180.697 13.791C179.932 15.2713 178.969 16.6403 177.835 17.86C177.258 18.4899 176.737 19.1688 176.279 19.889C175.917 20.427 175.777 21.0843 175.89 21.723C175.888 21.8482 175.92 21.9717 175.982 22.0802C176.045 22.1887 176.136 22.2781 176.245 22.3391C176.355 22.4 176.479 22.4302 176.604 22.4263C176.729 22.4224 176.851 22.3846 176.957 22.317C177.115 22.2515 177.258 22.1535 177.377 22.0293C177.495 21.9051 177.587 21.7575 177.645 21.596C178.745 18.79 180.921 16.984 183.394 15.466C183.904 15.1551 184.462 14.9294 185.045 14.798C185.625 14.663 185.902 14.945 185.801 15.532C185.717 15.9721 185.542 16.3898 185.287 16.758C184.769 17.539 184.244 18.314 183.732 19.106C183.463 19.5219 183.321 20.0074 183.324 20.5026C183.328 20.9979 183.475 21.4815 183.75 21.894C183.951 22.3235 184.28 22.6805 184.691 22.9165C185.103 23.1525 185.577 23.256 186.05 23.213C187.373 23.1456 188.66 22.7604 189.803 22.09C189.928 21.9961 190.081 21.9455 190.238 21.9455C190.394 21.9455 190.547 21.9961 190.673 22.09C191.414 22.598 192.276 22.9003 193.173 22.966C195.656 23.1002 198.134 22.6312 200.397 21.599C200.754 21.439 200.897 21.493 201.105 21.788C201.552 22.3955 202.208 22.8162 202.947 22.969C203.918 23.2281 204.934 23.2687 205.923 23.088C207.043 22.9137 208.112 22.5012 209.06 21.8785C210.007 21.2558 210.809 20.4372 211.414 19.478C212.099 18.3346 212.413 17.0072 212.314 15.678C212.277 15.1654 212.129 14.667 211.879 14.2178C211.63 13.7687 211.285 13.3796 210.869 13.078C210.628 12.884 210.832 12.798 210.955 12.711C211.598 12.2965 212.284 11.9541 213.003 11.69C213.246 11.6079 213.463 11.4619 213.631 11.2671C213.799 11.0723 213.911 10.8361 213.957 10.583C214.025 10.172 213.949 9.92996 213.425 10.02M194.849 14.9C195.002 14.832 195.221 14.668 195.375 14.852C195.506 15.008 195.397 15.214 195.315 15.387C195.041 16.0289 194.628 16.6017 194.105 17.0635C193.582 17.5253 192.962 17.8644 192.292 18.056C192.469 17.3788 192.789 16.7472 193.23 16.2032C193.67 15.6592 194.222 15.2153 194.848 14.901"></path>
<path fill="black" d="M173.268 17.302C173.557 15.659 173.398 14.139 171.922 13.041C171.875 12.9907 171.836 12.9333 171.807 12.871C172.493 12.3671 173.25 11.9671 174.053 11.684C174.307 11.5991 174.532 11.4449 174.702 11.2388C174.873 11.0328 174.983 10.7831 175.019 10.518C175.065 10.161 174.984 9.94505 174.541 10.018C172.353 10.2762 170.291 11.1815 168.621 12.618C167.821 13.341 167.964 14.077 168.948 14.499C169.495 14.734 170.061 14.927 170.608 15.159C170.817 15.214 171 15.3384 171.129 15.5119C171.257 15.6854 171.322 15.8974 171.314 16.113C171.298 17.009 171.043 17.8845 170.574 18.648C170.081 19.362 169.433 19.9557 168.679 20.3852C167.925 20.8147 167.084 21.0689 166.218 21.129C164.106 21.372 163.543 20.96 163.218 18.881C163.189 18.7 163.211 18.488 163.002 18.381C162.861 18.3152 162.706 18.2826 162.551 18.286C162.395 18.2894 162.242 18.3286 162.104 18.4005C161.966 18.4724 161.846 18.5752 161.754 18.7008C161.662 18.8265 161.6 18.9716 161.573 19.125C161.53 19.5067 161.516 19.8913 161.533 20.275C161.533 20.516 161.503 20.681 161.212 20.715C160.31 20.8845 159.399 21.0044 158.484 21.074C158.259 21.0929 158.035 21.0335 157.848 20.906C157.662 20.7785 157.526 20.5906 157.462 20.374C157.313 19.975 157.254 19.5476 157.292 19.1232C157.329 18.6988 157.46 18.288 157.677 17.921C158.16 17.021 158.669 16.132 159.098 15.206C159.289 14.9259 159.36 14.5816 159.297 14.2488C159.234 13.9159 159.041 13.6218 158.761 13.431C158.685 13.3801 158.605 13.3372 158.52 13.303C157.869 12.9028 157.119 12.6932 156.355 12.6984C155.591 12.7035 154.844 12.9231 154.199 13.332C152.783 14.0637 151.554 15.1085 150.603 16.387C149.652 17.6655 149.005 19.144 148.711 20.71C148.618 21.0515 148.617 21.4114 148.709 21.7533C148.8 22.0951 148.981 22.4064 149.232 22.6556C149.483 22.9048 149.796 23.0829 150.139 23.1717C150.481 23.2605 150.841 23.2568 151.182 23.161C152.243 22.8995 153.209 22.3451 153.97 21.561C154.398 21.155 154.85 20.769 155.27 20.396C155.309 20.537 155.36 20.763 155.431 20.979C155.556 21.5043 155.856 21.9713 156.281 22.3032C156.707 22.6352 157.233 22.8122 157.773 22.805C159.039 22.7855 160.275 22.4199 161.348 21.748C161.769 21.465 161.978 21.537 162.269 21.895C162.87 22.5981 163.722 23.0375 164.643 23.119C165.596 23.2323 166.562 23.1788 167.497 22.961C168.909 22.6927 170.21 22.0133 171.237 21.0081C172.263 20.0029 172.97 18.7167 173.269 17.311M156.458 15.588C156.463 15.9771 156.355 16.3593 156.147 16.688C155.158 18.5748 153.558 20.07 151.609 20.929C150.871 21.257 150.637 21.095 150.69 20.262C150.837 17.936 152.269 16.542 154.19 15.527C154.719 15.252 155.296 15.0822 155.89 15.027C156.466 14.967 156.47 14.982 156.461 15.585"></path>
<path fill="black" d="M123.857 19.4389C124.128 19.9289 123.924 20.6859 123.924 21.3279C123.917 22.7949 123.914 22.7949 125.345 23.1279C125.365 23.1345 125.384 23.1425 125.404 23.1519C125.799 23.2989 126.004 23.1339 126.104 22.7519C126.277 22.1169 126.527 21.4969 126.645 20.8519C126.738 20.2503 126.999 19.6873 127.398 19.2275C127.797 18.7676 128.317 18.4295 128.9 18.2519C130.416 17.6778 131.859 16.9273 133.2 16.0159C133.693 15.7044 134.092 15.2641 134.354 14.7426C134.617 14.221 134.731 13.6378 134.687 13.0559C132.974 13.9609 131.587 15.1379 130.058 16.1059C129.577 16.4259 129.035 16.6418 128.466 16.7399C127.942 16.8219 127.858 16.6599 128.087 16.2069C128.787 14.8229 129.455 13.4189 130.177 12.0469C130.578 11.2888 130.758 10.4325 130.694 9.57687C130.666 9.13687 130.515 8.74287 130.063 8.64087C129.628 8.54087 129.455 8.93387 129.263 9.24587C128.648 10.3858 128.135 11.5777 127.73 12.8079C127.276 14.1825 126.679 15.5055 125.949 16.7549C125.61 17.2739 125.443 17.2839 125.033 16.8229C124.659 16.3832 124.362 15.8848 124.152 15.3479C124.057 15.0737 123.893 14.8292 123.674 14.6392C123.455 14.4492 123.189 14.3204 122.905 14.2659C121.848 14.0994 120.775 14.0597 119.71 14.1479C118.869 14.2059 118.485 14.6979 118.463 15.5479C118.447 15.9874 118.541 16.4237 118.737 16.8176C118.933 17.2115 119.223 17.5505 119.583 17.8039C120.343 18.3552 121.201 18.7583 122.112 18.9919C122.706 19.1659 123.568 18.9299 123.852 19.4399M120.428 15.6709C121.227 15.5729 122.037 15.7142 122.756 16.0769C123.072 16.2173 123.322 16.473 123.456 16.7919C123.515 16.9389 123.595 17.1049 123.328 17.1829C122.752 17.2271 122.175 17.1085 121.663 16.8406C121.151 16.5727 120.725 16.1664 120.433 15.6679"></path>
<path fill="black" d="M73.581 23.1879C73.8754 23.1471 74.1655 23.0801 74.448 22.9879C75.8516 22.4752 77.0878 21.5876 78.0222 20.4215C78.9567 19.2554 79.5536 17.8555 79.748 16.3739C79.8555 15.7298 79.8156 15.0697 79.6313 14.4433C79.447 13.8168 79.1232 13.2402 78.684 12.7569C78.3783 12.3925 77.9436 12.1602 77.4707 12.1086C76.9978 12.0569 76.5232 12.19 76.146 12.4799C74.0195 14.2051 72.2783 16.3571 71.0351 18.7969C70.7601 19.3505 70.6251 19.9631 70.642 20.5809C70.673 22.4809 71.714 23.4129 73.577 23.1879M73.2171 19.4689C73.605 18.0485 74.257 16.7139 75.1391 15.5349C75.2281 15.4149 75.321 15.2989 75.421 15.1879C75.5828 14.947 75.8167 14.7635 76.0893 14.6637C76.3618 14.564 76.659 14.5532 76.938 14.6329C77.547 14.8529 77.653 15.4229 77.72 15.9859C77.7267 16.1142 77.7267 16.2427 77.72 16.3709C77.6723 17.3399 77.3311 18.2715 76.7417 19.0421C76.1524 19.8127 75.3427 20.386 74.42 20.6859C73.3094 20.9606 72.9094 20.5549 73.22 19.4689"></path>
</g>
<defs>
<clipPath id="clip0_2097_108">
<rect fill="white" height="23.26" width="213.999"></rect>
</clipPath>
</defs>
</svg>
