<svg height="50" viewBox="5 20 95 70" id="logo-mark" xmlns="http://www.w3.org/2000/svg"><path class="bear" d="M89.014 34.91c-.122.187-1.328.179-1.734-.53-.229-.4.264-.778.512-.827 1.004-.191 1.405 1.074 1.222 1.358m5.88 3.426c-.564-.702-2.388-2.698-4.187-3.766-.349-.207-.381-1.286-.867-1.758-.343-.336-1.605-1.125-3.9-2.004-.4-.152-1.085-.29-1.844-.394-1-1.401-2.377-1.094-2.796-.483-.368.534-.235 1.216.218 1.745.144.168-.027.251-.133.236-1.195-.166-1.27-1.757-1.383-1.763-5.553-.314-13.074-.336-15.79-.062-1.005.102-2.08.81-3.746 1.082-1.23.198-12.637-6.17-23.748-6.17-3.607 0-7.284.877-8.947 1.69-2.143 1.04-5.72 4.144-8.414 7.881-2.314 3.209-3.977 6.89-3.519 10.135.047.33 1.627-.179 1.769.12.064.13.02.254.015.53-.006.257.022.644.203 1.293.256.93.51 1.756.649 1.79.278.066 1.015-.814 1.077-.61.812 2.773 2.534 6.568 3.711 8.314.369.544.683.888.902.942.276.068.69-.794.77-.606 1.368 3.195 3.712 7.437 5.804 9.521h8.888c-.034-.442-.21-2.277-.756-2.87-.624-.675-3.121-1.52-3.121-5.033a4.7 4.7 0 01.404-1.954c.605-1.342 1.76-2.228 2.611-3.348 2.601-3.412 2.012-4.006 2.359-4.255.33-.235 1.075.337 3.464-2.465 0 0 .445.284.826.455.262.12.7.323.646.39-2.171 2.6-3.547 2.735-3.754 2.87-.287.185.326.904-4.277 6.281-.028.033-.027.057.003.072.058.03.22.026.449 0 1.043-.12 3.466-.716 3.718-.814 0 0 2.879-4.493 2.983-4.56.051-.032.546.11.99.141.48.036.97-.098 1.058.018.099.127-2.233 2.27-3.632 5.215-.101.214-.2.433-.289.655-.128.313.965-.11.937.084-.07.474-2.22 3.495-2.22 5.083 0 .254 1.074-.053 1.074.118 0 .147.656 2.776 2.253 3.917h9.215c-.006-.732-.277-1.849-.659-2.414-.398-.591-2.185-1.181-2.185-2.465 0-1.51 1.442-3.2 3.504-4.978 4.052-3.497 10.502-7.332 13.106-10.786a7.1 7.1 0 00.783-1.275c.05-.103.465-.101.87-.15.502-.065 1.046-.214 1.028-.16-.167.515-.457 1.043-.847 1.585a11.31 11.31 0 01-.688.86c.368-.214.884-.536 1.405-.86.996-.621 2.012-1.247 2.048-1.14.058.168-.215.864-.196 1.14.003.058.02.097.057.11.027.008.13-.033.289-.11 1.103-.538 4.94-2.846 5.123-2.727.207.134-.156 1.109.173 1.216.104.032 3.123-2.14 7.421-1.993.556.083 1.699.067 4.684.18.903.032 1.792-.279 2.298-.696.528-.436.708-.76 1.103-1.25.303-.377.826-1.023 1.01-1.224.14-.152.144-.347 0-.526M69.671 62.86c-.623-.303-4.647-1.844-4.647-6.18 0-2.77 2.74-6.84 2.913-7.33.138-.388.432-1.412.414-1.984-2.975 2.818-7.708 5.821-11.14 8.514-.363.652-1.085 2.378-.72 4.784.032.215.964-.025 1.11.101.312.272.555 2.027.763 2.095.312.102 1.25-.135 1.354.102.092.21.928 2.432 1.547 3.038H71.57c-.1-.592-.935-2.67-1.898-3.14M22.81 59.685c0-.313.186-.9.354-1.366-.46-.525-.983-1.298-1.501-2.176-1.206-2.043-2.387-4.652-2.702-5.982-.015-.06-.036-.115-.06-.135-.924.893-3.508 3.497-3.687 4.424-.092.477-1.214 4.982-1.214 6.57 0 .252 1.077-.054 1.077.118 0 .147 1.211 3.672 2.84 4.862h7.618c.007-.738-.089-1.932-.47-2.498-.585-.866-2.255-2.079-2.255-3.817"></path><path class="text" d="M15.902 73.097c0-.514.56-.812 1.829-.812.562 0 1.074.08 1.487.257.416.179.733.476.83.971h5.463C25.097 71.02 22.878 69 18.001 69c-4.39 0-7.61 1.524-7.61 4.552 0 5.442 10.097 3.958 10.097 6.115 0 .672-.952 1.048-2.391 1.048-.56 0-1.17-.119-1.634-.356-.487-.237-.83-.613-.951-1.128H10C10.122 81.805 13.146 84 17.78 84c4.83 0 8.22-1.603 8.22-4.908 0-5.183-10.098-3.857-10.098-5.995m56.596 4.438h6.919V74.27h-6.919v-2.003h8.176V69H67v14h14v-3.267h-8.502zM90.479 69H85v14h13v-3.267h-7.521zm-53.49 0C31.649 69 28 71.91 28 76.381 28 81.23 31.6 84 36.989 84c.189 0 .371-.012.557-.02v-3.5a4.59 4.59 0 01-.557.038c-2.695 0-3.362-2.276-3.362-4.097 0-1.801.764-3.938 3.314-3.938 2.479-.059 3.432 2 3.432 3.938 0 2.165-.809 3.807-2.827 4.06v3.5C42.348 83.787 46 81.089 46 76.42c0-3.759-2.886-7.42-9.011-7.42m26.427 11.122c0-2.82-1.075-3.17-2.85-3.714 1.962-.447 2.827-1.807 2.827-3.423 0-2.72-1.845-3.985-7.451-3.985h-.97v3.267h1.11c1.285 0 2.22.467 2.22 1.458 0 .972-.911 1.322-2.617 1.322h-2.17v-2.78h1.457V69H48v14h5.514v-4.88h1.682c2.57 0 2.94.602 2.94 2.43 0 1.244.143 2.138.282 2.45H64v-.428c-.655 0-.584-.622-.584-2.45"></path></svg>