<svg width="101px" height="31px" viewBox="0 0 76 23" version="1.1" xmlns="http://www.w3.org/2000/svg" xmlns:xlink="http://www.w3.org/1999/xlink">
        <defs></defs>
        <g id="header-and-footer" stroke="none" stroke-width="1" fill="none" fill-rule="evenodd">
            <g id="default" transform="translate(-23.000000, -16.000000)" fill="#EAAB00">
                <g id="header">
                    <path d="M98.8665639,17.0433005 L98.4393147,20.2078033 C98.3964393,20.471073 98.2286989,21.1864146 97.5577371,21.1864146 L87.8197641,21.1864146 C84.1475268,21.1864146 80.8807249,23.2316447 79.4575637,26.1780096 C78.0532075,29.0860124 74.195177,37.336135 74.195177,37.336135 C73.5851433,38.5855381 73.2759893,38.70589 72.723875,38.70589 L65.8630646,38.70589 C65.3884268,38.70589 64.9995397,38.3674003 64.9032582,37.9220983 C64.8062245,37.4798051 63.4071337,30.0134742 62.7655076,27.5455081 C62.7060838,27.3168395 62.6218375,27.0896752 62.5172818,26.862511 C61.4845121,24.0688426 58.9390694,21.1864146 52.6672311,21.1864146 L42.6313872,21.1864146 C42.4388241,21.1864146 41.9890089,21.2842005 41.8972406,21.8648985 L39.5992715,37.7280309 C39.5112642,38.3109854 39.1359167,38.70589 38.5913244,38.70589 L34.3759991,38.70589 C33.8336634,38.70589 33.3334508,38.2786408 33.3958834,37.7280309 C33.4673423,37.083396 35.5810225,22.406482 35.6509771,21.9205612 C35.7058876,21.5218955 35.3215137,21.1864146 34.9145739,21.1864146 L23.9851171,21.1864146 C23.4435336,21.1864146 22.9403122,20.7305818 23.0057535,20.2078033 C23.0794691,19.6037872 23.3826054,17.6194852 23.4954353,16.9778592 C23.5781773,16.501717 23.9302066,16 24.7275379,16 L53.0470918,16 C64.2616321,16 67.6788739,22.1823266 68.7011128,26.8414495 C68.7026172,26.8474671 68.7071304,26.8534846 68.7086348,26.8595022 C69.3683136,29.7050724 69.7271127,31.7548157 69.9377285,32.9703699 C69.9836127,33.2351441 70.3461728,33.2795238 70.4544895,33.0328024 L74.395262,24.1222487 C76.4021299,19.3721098 81.4539008,16 86.9381864,16 L97.8947224,16 C98.4363059,16 98.9470493,16.4212316 98.8665639,17.0433005 M97.3945098,27.6463028 C97.0657987,29.6336135 96.2865201,35.2878961 96.1187797,36.4545573 C95.9525436,37.622723 96.1962562,37.9612127 96.1962562,38.2162083 C96.1962562,38.4862478 95.976614,38.70589 95.70507,38.70589 L91.4461172,38.70589 C90.9060381,38.70589 90.4667536,38.26811 90.4667536,37.7280309 L90.4667536,36.8464532 C90.4667536,37.1428198 87.9152934,39 83.6044388,39 C80.7280284,39 78.8023981,37.1044576 78.8023981,34.7530824 C78.8023981,32.7213919 80.2451165,31.1312424 82.1248627,30.5971809 C85.0298566,29.7720182 87.9167978,29.4350329 90.7608636,28.5873042 C91.2625806,28.4383687 91.6424412,27.9975799 91.6424412,27.4499787 C91.6424412,26.8015829 91.1497507,26.2757955 89.9770718,26.2757955 C87.6166702,26.2757955 87.5038403,27.6816561 87.3300823,27.8554142 C87.1548198,28.0306767 86.9118594,28.1359846 86.6440765,28.1359846 L81.8412835,28.1359846 C81.5697395,28.1359846 81.3516017,27.9163423 81.3516017,27.6463028 C81.3516017,26.243451 84.0241661,22.8502796 89.3888519,22.8502796 C96.7333265,22.8502796 97.7119379,25.711646 97.3945098,27.6463028 M90.9564354,32.0504301 C90.9564354,31.7803905 90.7367932,31.5615005 90.4667536,31.5615005 C89.8785337,31.5615005 87.5910955,32.3437878 85.8490017,32.8831148 C85.2329504,33.0741734 84.7711,33.5269974 84.7711,34.1731367 C84.7711,34.947902 85.4300267,35.5752363 86.242402,35.5752363 C88.2251995,35.5752363 90.9564354,33.8316382 90.9564354,32.0504301 M60.9399197,31.4637146 C60.9399197,32.0037937 60.5006353,32.4423259 59.959804,32.4423259 L49.2537504,32.4423259 C48.7813692,32.4423259 48.512834,32.8409916 48.512834,33.1546587 C48.512834,34.7500736 49.9525436,35.5744841 51.6058778,35.5744841 C52.7492208,35.5744841 53.9617662,35.0960853 54.4484392,34.4003009 C54.5379509,34.2814534 54.6801166,34.2039768 54.8403351,34.2039768 L59.654411,34.2039768 C59.925955,34.2039768 60.1440928,34.4160971 60.1440928,34.6936586 C60.1440928,35.642182 57.4933422,39 51.0184101,39 C45.3122257,39 42.6313872,34.917814 42.6313872,31.6585342 C42.6313872,26.3487589 46.7045467,22.8502796 52.1940977,22.8502796 C61.046732,22.8502796 60.9399197,29.7998496 60.9399197,31.4637146 M55.1133835,28.6790725 C55.1133835,27.3815286 53.7180536,26.1780096 52.0963118,26.1780096 C50.1676726,26.1780096 48.8618545,27.5470125 48.8618545,29.1138437 C48.8618545,29.3846355 49.0814967,29.6042777 49.3515363,29.6042777 L54.3641929,29.6042777 C54.9057764,29.6042777 55.1133835,29.2199038 55.1133835,28.6790725" id="logo"></path>
                </g>
            </g>
        </g>
    </svg>